<svg id="Layer_1" data-name="Layer 1" xmlns="http://www.w3.org/2000/svg" viewBox="0 0 280.93 58.13"><defs><style>.cls-1{fill:#231f20;}</style></defs><title>1Artboard 3</title><path class="cls-1" d="M107.57,53.57v4.56H82V5.85h25.11v4.56H85.73V29.27h18.62v4.34H85.73v20Z"/><path class="cls-1" d="M114.06,4.38h3.64V49.71c0,1.93.25,3.19.76,3.78a2.3,2.3,0,0,0,1.82.89,6.47,6.47,0,0,0,1.93-.3,14.1,14.1,0,0,0,1.66-.59l.65,4a9.19,9.19,0,0,1-2.5,1,10.49,10.49,0,0,1-2.54.37,4.68,4.68,0,0,1-4-2,9.07,9.07,0,0,1-1.47-5.48Z"/><path class="cls-1" d="M140.56,58.87A10.52,10.52,0,0,1,135,57.29,14.53,14.53,0,0,1,130.53,53a22,22,0,0,1-2.93-6.34,27.79,27.79,0,0,1-1-7.71,26.12,26.12,0,0,1,1.79-9.79,17.89,17.89,0,0,1,5-7.13,10.83,10.83,0,0,1,7.19-2.67A10.62,10.62,0,0,1,147.72,22a18.28,18.28,0,0,1,4.86,7.13,25.86,25.86,0,0,1,1.77,9.69V40a4.53,4.53,0,0,1-.06.84H130.37a21,21,0,0,0,1.69,7.29,13.38,13.38,0,0,0,3.7,5.05,7.64,7.64,0,0,0,5,1.87,8.31,8.31,0,0,0,5.18-1.91,10,10,0,0,0,3.4-5l3.17,1.18a15,15,0,0,1-2.63,4.93,12.69,12.69,0,0,1-4.16,3.42A11.13,11.13,0,0,1,140.56,58.87Zm-10.3-21.65h20.65a20.15,20.15,0,0,0-1.63-7.29,12.84,12.84,0,0,0-3.7-4.92,8,8,0,0,0-5-1.78,7.85,7.85,0,0,0-5,1.78,13,13,0,0,0-3.68,5A20.27,20.27,0,0,0,130.26,37.22Z"/><path class="cls-1" d="M172.1,58.87a10.54,10.54,0,0,1-5.6-1.57,14.86,14.86,0,0,1-4.45-4.36,22.34,22.34,0,0,1-3-6.37,27.4,27.4,0,0,1-1-7.62,26.66,26.66,0,0,1,1.77-9.89,17.37,17.37,0,0,1,4.93-7.1,11.08,11.08,0,0,1,7.3-2.64A10.61,10.61,0,0,1,179,21.79a14.52,14.52,0,0,1,4.45,6.67L179.88,30a10.63,10.63,0,0,0-3.3-4.6,7.45,7.45,0,0,0-4.69-1.66,7.66,7.66,0,0,0-5.1,2,13.46,13.46,0,0,0-3.67,5.41A21.05,21.05,0,0,0,161.75,39a21,21,0,0,0,1.39,7.82,14.72,14.72,0,0,0,3.71,5.6,7.4,7.4,0,0,0,5.09,2.08,7.5,7.5,0,0,0,3.52-.88,9.69,9.69,0,0,0,2.95-2.4,8,8,0,0,0,1.69-3.27l3.59,1.47a13.46,13.46,0,0,1-2.49,4.9,12.65,12.65,0,0,1-4.08,3.38A10.73,10.73,0,0,1,172.1,58.87Z"/><path class="cls-1" d="M202.85,56.59a13.65,13.65,0,0,0-1.35.81,10.39,10.39,0,0,1-2.19,1,8.68,8.68,0,0,1-2.79.44,5.52,5.52,0,0,1-5.1-3.29,9.35,9.35,0,0,1-.81-4.11V23.89h-3.86v-4h3.86V7h3.65v13h6.44v4h-6.44v26.2a4.69,4.69,0,0,0,1.1,3.1,3,3,0,0,0,2.28,1,5.45,5.45,0,0,0,2.74-.7,8.34,8.34,0,0,0,1.5-1Z"/><path class="cls-1" d="M221.35,24.18a9.63,9.63,0,0,0-6.41,2.8,14.62,14.62,0,0,0-3.89,7.29V58.13h-3.64V19.91h3.43V29a18.05,18.05,0,0,1,3.84-6.55,8.31,8.31,0,0,1,5.06-2.8,6.94,6.94,0,0,1,.94-.07,2.5,2.5,0,0,1,.67.07Z"/><path class="cls-1" d="M237.34,58.87a10.49,10.49,0,0,1-5.6-1.57,14.46,14.46,0,0,1-4.4-4.32,22.15,22.15,0,0,1-2.87-6.3,27.09,27.09,0,0,1-1-7.51,27.63,27.63,0,0,1,1-7.65,21.67,21.67,0,0,1,2.89-6.3,14.89,14.89,0,0,1,4.43-4.32,10.37,10.37,0,0,1,5.55-1.58,10.23,10.23,0,0,1,5.53,1.58,14.92,14.92,0,0,1,4.4,4.32,21.67,21.67,0,0,1,2.89,6.3,27.63,27.63,0,0,1,1,7.65,27.09,27.09,0,0,1-1,7.51,22.15,22.15,0,0,1-2.87,6.3,14.55,14.55,0,0,1-4.39,4.32A10.46,10.46,0,0,1,237.34,58.87ZM227.15,39.24A20.76,20.76,0,0,0,228.52,47a13.8,13.8,0,0,0,3.67,5.48,7.59,7.59,0,0,0,5.1,2,7.5,7.5,0,0,0,5.1-2.05,14.31,14.31,0,0,0,3.7-5.59A21.08,21.08,0,0,0,247.48,39a20.6,20.6,0,0,0-1.39-7.67,14.42,14.42,0,0,0-3.7-5.56,7.5,7.5,0,0,0-5.1-2.05,7.4,7.4,0,0,0-5.1,2.12,14.81,14.81,0,0,0-3.67,5.6A20.9,20.9,0,0,0,227.15,39.24Z"/><path class="cls-1" d="M280.8,58.13h-3.65V36.84q0-6.74-1.45-9.84a4.77,4.77,0,0,0-4.56-3.11,7.55,7.55,0,0,0-4.24,1.42,13.3,13.3,0,0,0-3.67,3.88A16.7,16.7,0,0,0,261,34.78V58.13H257.3V19.91h3.33v8.71a17.13,17.13,0,0,1,2.95-4.87,13.6,13.6,0,0,1,4.13-3.25,10.42,10.42,0,0,1,4.77-1.18,6.49,6.49,0,0,1,3.92,1.18A8.05,8.05,0,0,1,279,23.83a19.3,19.3,0,0,1,1.4,5.2,49.54,49.54,0,0,1,.43,6.77Z"/><path class="cls-1" d="M45.07,13.07c-.69,0-1.37,0-2,.09A22.51,22.51,0,0,1,24.57,45a22.53,22.53,0,1,0,20.5-31.9Z"/><path class="cls-1" d="M43,13.16A22.53,22.53,0,1,0,22.53,45.07c.69,0,1.37,0,2-.1A22.53,22.53,0,0,1,43,13.16Z"/></svg>